<?xml version="1.0" standalone="no"?>
<!DOCTYPE svg PUBLIC "-//W3C//DTD SVG 20010904//EN"
 "http://www.w3.org/TR/2001/REC-SVG-20010904/DTD/svg10.dtd">
<svg version="1.0" xmlns="http://www.w3.org/2000/svg"
 width="635.911843pt" height="624.908012pt" viewBox="0 0 635.911843 624.908012"
 preserveAspectRatio="xMidYMid meet">
<metadata>
Created by potrace 1.12, written by Peter Selinger 2001-2015
</metadata>
<g transform="translate(-2.088157,625.863862) scale(0.100000,-0.100000)"
fill="#000000" stroke="none">
<path d="M3169 6245 c-14 -8 -32 -27 -38 -43 -12 -28 -16 -29 -89 -35 -78 -6
-245 -40 -383 -76 -331 -88 -749 -272 -1050 -461 -232 -146 -451 -315 -509
-394 -26 -34 -29 -35 -35 -17 -9 31 -54 61 -89 61 -44 0 -74 -24 -86 -71 -13
-48 2 -79 50 -104 l31 -16 -29 -24 c-16 -13 -53 -62 -82 -107 -29 -46 -70
-108 -90 -138 -56 -83 -150 -250 -217 -385 -173 -348 -271 -660 -324 -1032
l-22 -152 -47 6 c-52 6 -98 -12 -124 -49 -24 -34 -19 -66 14 -99 27 -28 35
-30 87 -28 l58 3 3 -50 c4 -79 51 -372 73 -459 77 -302 176 -571 317 -850 80
-160 292 -484 356 -544 l26 -24 -34 -23 c-38 -26 -53 -74 -36 -119 15 -39 38
-54 82 -55 31 0 42 6 65 35 l28 35 40 -39 c60 -58 225 -184 355 -271 357 -238
837 -456 1190 -539 121 -29 338 -61 409 -61 l61 0 0 -32 c0 -39 7 -51 37 -67
40 -21 79 -14 107 20 14 17 26 39 26 48 0 15 11 19 58 24 232 25 590 114 852
213 408 155 895 445 1102 657 49 50 57 55 63 38 23 -73 85 -92 136 -42 42 42
41 103 -2 147 l-32 33 22 28 c75 94 147 195 175 243 18 30 53 87 78 125 167
257 335 686 412 1051 30 143 56 337 56 416 l0 58 58 0 c70 0 102 25 102 79 0
70 -35 102 -110 99 -54 -2 -55 -2 -58 28 -37 426 -213 957 -452 1364 -76 131
-212 338 -262 403 -30 37 -32 67 -4 67 44 0 63 113 26 150 -31 31 -76 26 -111
-11 -16 -17 -29 -36 -29 -42 0 -6 -28 16 -62 49 -243 236 -664 499 -1073 672
-295 125 -611 209 -852 227 -86 7 -92 9 -97 31 -15 58 -71 79 -127 49z m-39
-326 l0 -100 -386 -190 c-212 -104 -387 -189 -389 -189 -12 0 -649 -335 -795
-418 -96 -55 -180 -97 -187 -94 -18 11 -183 173 -183 181 0 29 345 282 559
410 274 164 655 329 939 407 86 24 396 91 430 93 9 1 12 -25 12 -100z m375 66
c341 -58 795 -237 1178 -464 191 -114 569 -386 564 -407 -1 -5 -45 -49 -98
-97 l-97 -87 -128 71 c-354 196 -460 252 -781 412 -192 94 -393 192 -448 215
-55 24 -169 76 -253 115 l-153 72 5 35 c3 19 6 66 6 104 l0 69 33 -7 c17 -4
95 -18 172 -31z m-371 -373 c-1 -7 -2 -74 -2 -150 l-2 -139 -52 -28 c-29 -15
-91 -51 -138 -78 -47 -27 -184 -100 -305 -162 -294 -150 -482 -248 -585 -305
-47 -26 -134 -73 -193 -104 l-108 -57 -30 25 c-79 66 -199 182 -199 192 0 6
17 18 38 28 20 10 150 77 287 150 475 252 870 453 1075 545 63 28 133 62 155
75 42 25 61 27 59 8z m301 -57 c245 -105 849 -400 1095 -535 58 -32 171 -92
252 -133 l146 -75 -102 -94 c-159 -146 -138 -134 -183 -105 -84 54 -491 267
-903 471 -239 119 -438 220 -442 224 -12 12 4 304 16 298 6 -2 61 -25 121 -51z
m-303 -763 l3 -333 77 -4 77 -4 6 29 c4 16 6 49 5 72 -1 24 -1 158 -1 299 l1
256 173 -86 c94 -48 267 -132 382 -188 243 -118 676 -340 690 -354 6 -6 0 -15
-15 -26 -13 -9 -58 -48 -99 -86 -78 -71 -162 -141 -187 -155 -12 -7 -11 -22
10 -103 14 -51 32 -140 40 -197 16 -103 59 -220 209 -568 l35 -81 -60 -7 c-34
-3 -82 -6 -108 -6 -69 0 -99 -43 -79 -115 14 -50 34 -57 149 -49 l99 7 -41
-94 c-22 -52 -76 -183 -119 -292 -86 -216 -124 -297 -139 -297 -5 0 -40 27
-77 61 -69 63 -156 119 -184 119 -8 0 -25 -18 -37 -39 -23 -40 -19 -79 7 -96
23 -14 8 -27 -71 -64 -61 -29 -435 -211 -570 -279 -5 -2 -8 152 -8 341 l0 346
-26 20 c-27 21 -78 28 -101 13 -6 -4 -18 -20 -27 -36 -12 -24 -13 -78 -9 -353
l6 -325 -24 7 c-13 4 -46 16 -74 26 -60 22 -555 265 -568 278 -7 7 3 25 26 51
21 22 37 44 37 50 0 5 -13 24 -28 41 l-29 32 -59 -33 c-70 -39 -168 -108 -206
-144 -15 -14 -29 -26 -32 -26 -9 0 -42 70 -120 256 -41 98 -97 233 -125 299
-28 66 -51 123 -51 126 0 4 49 9 110 11 60 1 114 8 120 14 5 5 16 36 22 68 11
48 10 59 -2 66 -8 6 -67 10 -132 10 l-116 0 19 50 c38 99 122 297 172 403 l50
108 -21 62 c-32 90 -26 189 18 279 11 23 20 47 20 54 0 14 -78 96 -188 197
-40 37 -71 71 -68 76 3 4 72 41 153 81 81 40 209 105 283 145 74 40 268 141
430 225 162 84 310 163 329 176 19 13 36 22 37 21 2 -2 4 -152 6 -335z m-1974
115 c42 -40 91 -84 109 -99 l32 -26 -30 -62 c-16 -34 -47 -103 -68 -153 -21
-51 -66 -155 -101 -232 -113 -254 -128 -289 -193 -445 -69 -166 -221 -567
-232 -612 l-7 -28 -150 0 -150 0 6 28 c3 15 15 85 26 156 62 393 244 860 499
1281 66 108 171 264 179 265 2 0 38 -33 80 -73z m4290 -64 c312 -501 507 -974
582 -1412 11 -65 20 -131 20 -147 l0 -29 -139 -2 -139 -2 -22 52 c-12 29 -37
93 -55 142 -82 223 -202 514 -435 1050 -75 172 -111 275 -104 294 7 21 196
191 205 185 4 -2 43 -61 87 -131z m-3801 -383 l31 -25 -57 -145 c-53 -131
-144 -348 -220 -520 -35 -79 -113 -267 -171 -410 l-42 -105 -169 0 c-112 0
-169 4 -169 11 0 55 223 609 447 1107 46 103 88 199 93 212 6 14 15 37 20 51
l10 26 98 -89 c53 -48 111 -99 129 -113z m3370 183 c8 -25 103 -247 213 -498
106 -241 254 -601 310 -755 21 -58 41 -112 44 -120 6 -13 -16 -15 -163 -15
l-170 0 -35 75 c-66 141 -417 975 -451 1071 l-13 37 41 31 c23 17 78 66 122
110 44 43 84 80 88 80 4 1 10 -7 14 -16z m-3089 -436 c48 -45 98 -89 110 -97
l24 -15 -20 -45 c-11 -25 -35 -83 -53 -130 -18 -47 -85 -209 -149 -360 -64
-151 -120 -283 -123 -293 -6 -17 -20 -18 -177 -15 -93 2 -170 5 -170 8 0 7 98
247 165 405 26 61 55 130 65 155 10 25 52 122 92 215 41 94 83 193 93 222 23
63 22 64 143 -50z m2702 82 c0 -11 83 -209 193 -464 74 -169 211 -483 233
-532 l14 -33 -159 0 c-88 0 -166 -2 -173 -5 -15 -6 -28 22 -169 350 -117 273
-176 418 -187 459 -10 35 -10 35 71 108 45 41 99 88 120 106 36 30 57 34 57
11z m-3969 -1249 c21 -77 183 -504 274 -725 137 -330 150 -360 305 -707 l48
-107 -112 -113 -113 -113 -27 32 c-57 67 -241 375 -321 538 -105 213 -211 503
-270 737 -43 167 -85 446 -76 498 1 3 64 5 140 5 l140 0 12 -45z m506 36 c3
-3 21 -43 38 -88 68 -174 197 -485 324 -781 l133 -307 -123 -130 c-67 -72
-125 -130 -129 -130 -8 0 -54 101 -222 495 -159 373 -218 522 -297 756 l-66
196 168 -2 c92 -1 170 -5 174 -9z m558 -35 c16 -41 51 -124 204 -485 24 -55
63 -140 88 -189 l44 -89 -28 -30 c-64 -68 -244 -230 -249 -225 -3 3 -39 86
-79 184 -40 98 -110 268 -155 378 -139 337 -200 487 -200 493 0 4 81 8 179 8
l179 2 17 -47z m3338 39 c5 0 5 -10 2 -22 -11 -35 -124 -319 -220 -553 -48
-115 -111 -268 -140 -340 -29 -71 -56 -130 -61 -132 -5 -2 -67 55 -138 126
l-129 129 26 54 c32 68 106 239 203 471 41 98 85 199 98 225 l24 47 163 -2
c90 -1 168 -3 172 -3z m543 -8 c-2 -4 -42 -113 -89 -242 -81 -223 -173 -462
-274 -705 -107 -257 -206 -491 -212 -498 -4 -4 -58 49 -121 118 -63 70 -120
130 -128 134 -15 9 1 59 68 211 149 340 221 511 305 723 53 136 103 253 109
260 13 13 350 12 342 -1z m469 9 c-2 -5 -16 -86 -30 -182 -61 -423 -224 -896
-437 -1268 -86 -152 -136 -228 -188 -292 l-46 -56 -112 109 c-77 75 -110 114
-103 122 5 6 32 70 61 141 29 72 70 167 91 213 76 166 250 594 330 812 28 74
72 196 100 270 l50 135 145 2 c79 1 142 -2 139 -6z m-3719 -762 c6 -11 151
-82 369 -183 55 -25 170 -81 255 -124 l155 -78 3 -133 3 -133 -28 7 c-40 9
-151 64 -448 220 -143 75 -316 163 -384 195 -111 53 -122 60 -104 71 11 7 51
47 89 91 38 43 72 78 76 78 4 0 10 -5 14 -11z m1842 -90 c34 -37 62 -71 62
-76 0 -10 -228 -126 -422 -214 -59 -27 -204 -99 -323 -160 l-215 -111 0 134 0
134 110 58 c60 31 239 117 397 191 251 117 289 132 308 122 12 -7 50 -42 83
-78z m-1858 -339 c36 -20 142 -75 235 -122 94 -47 239 -122 322 -166 84 -44
167 -85 185 -92 59 -24 58 -21 58 -182 l0 -149 -182 94 c-264 136 -528 276
-643 341 -55 31 -167 90 -250 132 -82 42 -163 85 -178 97 l-29 20 93 93 92 92
116 -60 c64 -34 145 -78 181 -98z m2140 58 c78 -81 86 -94 72 -104 -9 -7 -190
-101 -402 -210 -212 -108 -465 -240 -564 -292 -98 -52 -202 -105 -232 -118
l-54 -24 0 124 c0 69 -3 131 -6 139 -3 10 5 20 23 29 15 9 89 48 163 88 74 40
295 153 490 251 195 97 364 184 375 193 11 8 26 16 34 16 7 0 53 -41 101 -92z
m-2670 -252 c41 -21 127 -67 190 -101 63 -34 171 -92 240 -127 113 -58 461
-240 774 -404 l119 -62 2 -156 c1 -86 -1 -156 -5 -156 -45 0 -563 258 -1255
625 -126 67 -256 135 -288 150 -31 16 -62 35 -69 42 -8 10 13 37 98 122 60 60
111 108 114 107 3 -1 39 -19 80 -40z m2994 -72 c63 -63 105 -113 102 -120 -3
-8 -49 -35 -103 -62 -54 -27 -215 -110 -358 -185 -357 -186 -1132 -564 -1140
-555 -2 2 -5 72 -6 155 l-2 152 134 69 c263 136 927 476 1081 554 87 43 160
83 163 88 4 6 10 10 14 10 5 0 57 -48 115 -106z m-3079 -417 c61 -33 133 -72
162 -88 205 -112 1162 -583 1226 -603 14 -5 17 -18 17 -94 0 -49 3 -104 7
-122 l6 -33 -77 7 c-211 19 -472 81 -680 162 -120 47 -444 201 -570 271 -209
115 -421 258 -571 383 l-85 71 113 112 112 112 115 -59 c63 -32 165 -86 225
-119z m3424 72 c37 -36 82 -78 101 -93 l34 -28 -39 -35 c-111 -96 -380 -287
-530 -375 -88 -52 -328 -171 -441 -218 -352 -147 -630 -224 -919 -256 l-60 -6
0 124 0 124 130 61 c72 34 189 87 260 119 127 56 863 425 1200 602 167 87 170
88 184 68 8 -12 44 -50 80 -87z"/>
<path d="M3599 4709 c-16 -17 -29 -39 -29 -48 0 -9 29 -51 65 -94 119 -143
157 -243 159 -424 l1 -124 -37 -32 c-107 -91 -97 -73 -89 -160 l6 -79 41 31
c23 16 64 41 92 55 60 30 84 59 114 134 19 49 22 75 21 183 -1 144 -16 216
-67 316 -59 119 -191 273 -232 273 -9 0 -29 -14 -45 -31z"/>
<path d="M2718 4673 c-112 -107 -190 -231 -213 -339 -29 -138 -13 -375 31
-442 8 -12 52 -46 97 -76 45 -29 90 -62 100 -73 18 -20 17 -21 -19 -27 -20 -4
-77 -4 -127 0 -84 6 -94 9 -119 36 -39 42 -88 176 -108 297 -14 83 -22 109
-40 123 -38 31 -56 23 -71 -29 -44 -152 13 -390 123 -509 50 -54 78 -62 251
-74 73 -5 143 -13 155 -17 22 -8 18 -12 -45 -40 -95 -44 -201 -85 -315 -123
-54 -17 -100 -35 -103 -40 -3 -4 -12 -59 -21 -121 -21 -143 -25 -444 -6 -476
17 -30 52 -38 94 -20 l36 15 5 233 c6 249 11 289 34 289 8 0 94 27 191 60 96
33 176 59 178 58 2 -3 -103 -130 -198 -240 l-48 -55 0 -79 c0 -217 91 -452
217 -563 45 -40 100 -71 126 -71 16 0 47 41 47 62 0 7 -26 43 -58 80 -94 109
-128 189 -187 446 l-16 72 30 43 c17 23 79 90 139 150 l107 107 8 -66 c10 -95
38 -151 81 -169 51 -21 62 -19 84 19 15 25 29 35 58 41 36 6 40 4 67 -29 16
-20 38 -36 49 -36 36 0 86 65 109 141 l21 71 50 -49 c27 -26 83 -91 123 -144
l74 -97 -25 -123 c-13 -68 -32 -144 -40 -169 -23 -67 -76 -158 -133 -225 -28
-32 -51 -64 -51 -71 0 -14 49 -64 64 -64 24 0 125 91 170 154 94 131 143 276
161 470 l7 76 -70 93 c-39 50 -95 118 -123 150 -50 56 -51 58 -23 51 16 -4 58
-18 94 -31 104 -39 180 -63 201 -63 11 0 24 -10 29 -22 21 -51 40 -219 40
-350 l0 -137 31 -16 c16 -9 44 -15 62 -13 41 4 45 19 46 199 1 117 -4 173 -24
280 -14 73 -29 136 -33 140 -4 4 -63 30 -132 59 -170 70 -310 137 -310 148 0
5 54 13 120 17 130 7 216 24 252 47 32 21 124 190 143 263 9 33 19 90 22 127
5 62 4 71 -21 108 -41 63 -80 47 -91 -38 -19 -136 -83 -296 -135 -333 -20 -15
-54 -20 -168 -25 l-144 -7 -38 -52 c-44 -60 -134 -131 -218 -172 -51 -25 -68
-28 -152 -27 -85 0 -102 4 -160 31 -73 34 -163 111 -219 187 -58 78 -71 110
-71 170 l0 54 -70 51 -70 51 0 103 c0 216 40 325 167 458 81 84 85 98 40 147
-31 34 -53 27 -119 -35z m556 -1333 c41 -15 36 -57 -9 -76 -93 -38 -173 8
-115 66 22 22 81 27 124 10z"/>
<path d="M3087 4256 c-89 -25 -176 -120 -196 -216 -34 -159 6 -293 115 -384
78 -65 115 -78 208 -74 149 6 251 78 318 223 18 40 23 68 23 135 0 76 -4 93
-33 152 -33 67 -82 117 -152 154 -45 23 -213 30 -283 10z"/>
</g>
</svg>
